<svg width="32" height="32" viewBox="0 0 32 32" fill="none" xmlns="http://www.w3.org/2000/svg">
<path d="M16.9412 1.88235C8.62521 1.88235 1.88235 8.62521 1.88235 16.9412C1.88235 25.2571 8.62521 32 16.9412 32C25.2571 32 32 25.2571 32 16.9412C32 8.62521 25.2571 1.88235 16.9412 1.88235ZM24.1781 13.2336C24.1882 13.3916 24.1882 13.5563 24.1882 13.7176C24.1882 18.6521 20.4303 24.3361 13.563 24.3361C11.4454 24.3361 9.48235 23.721 7.82857 22.6622C8.13109 22.6958 8.42017 22.7092 8.72941 22.7092C10.4773 22.7092 12.084 22.1176 13.3647 21.116C11.7244 21.0824 10.3462 20.0067 9.87563 18.5277C10.4504 18.6118 10.9681 18.6118 11.5597 18.4605C10.715 18.2889 9.95588 17.8302 9.41115 17.1623C8.86641 16.4944 8.5697 15.6585 8.57143 14.7966V14.7496C9.06555 15.0286 9.64706 15.2 10.2555 15.2235C9.74401 14.8827 9.32456 14.4209 9.03432 13.8791C8.74408 13.3373 8.59201 12.7323 8.5916 12.1176C8.5916 11.4218 8.77311 10.7866 9.09916 10.2353C10.0366 11.3894 11.2065 12.3333 12.5327 13.0056C13.8588 13.6779 15.3116 14.0637 16.7966 14.1378C16.2689 11.6 18.1647 9.54622 20.4437 9.54622C21.5193 9.54622 22.4874 9.99664 23.1697 10.7227C24.0134 10.5647 24.8202 10.2487 25.5395 9.82521C25.2605 10.6891 24.6756 11.4185 23.8992 11.879C24.6521 11.7983 25.3781 11.5899 26.0504 11.2975C25.5429 12.0437 24.9076 12.7059 24.1781 13.2336Z" fill="#A7A7A7"/>
</svg>
